<svg width="20" height="19" viewBox="0 0 20 19" fill="none" xmlns="http://www.w3.org/2000/svg">
<path d="M19.8779 17.4909L14.0681 12.3405C15.17 11.1345 15.8334 9.60126 15.8334 7.93194C15.8334 4.06217 12.2819 0.913818 7.91666 0.913818C3.55142 0.913818 0 4.06217 0 7.93194C0 11.8017 3.55146 14.9501 7.9167 14.9501C9.79975 14.9501 11.5293 14.362 12.8897 13.3851L18.6996 18.5356C18.8624 18.6798 19.1261 18.6798 19.2889 18.5356L19.878 18.0133C20.0407 17.869 20.0407 17.6351 19.8779 17.4909ZM7.9167 13.4726C4.47025 13.4726 1.66668 10.9872 1.66668 7.93194C1.66668 4.87667 4.47025 2.39133 7.9167 2.39133C11.3632 2.39133 14.1667 4.87667 14.1667 7.93194C14.1667 10.9872 11.3632 13.4726 7.9167 13.4726Z" fill="white"/>
</svg>
